<svg xmlns="http://www.w3.org/2000/svg" xmlns:xlink="http://www.w3.org/1999/xlink" width="500" zoomAndPan="magnify" viewBox="0 0 375 374.999991" height="500" preserveAspectRatio="xMidYMid meet" version="1.0"><defs><g/><clipPath id="7f3bfec1c5"><path d="M 183 104.441406 L 192 104.441406 L 192 113 L 183 113 Z M 183 104.441406 " clip-rule="nonzero"/></clipPath><clipPath id="0d1f8310f4"><path d="M 183 205 L 192 205 L 192 213.191406 L 183 213.191406 Z M 183 205 " clip-rule="nonzero"/></clipPath><clipPath id="860e2d3fe7"><path d="M 233 154 L 241.722656 154 L 241.722656 163 L 233 163 Z M 233 154 " clip-rule="nonzero"/></clipPath><clipPath id="7951ebdfc3"><path d="M 132.972656 154 L 141 154 L 141 163 L 132.972656 163 Z M 132.972656 154 " clip-rule="nonzero"/></clipPath></defs><path fill="#01297f" d="M 204.855469 170.085938 C 206.820312 167.890625 206.835938 164.625 205.015625 162.417969 C 207.136719 159.679688 208.832031 156.769531 210.085938 153.722656 C 211.667969 149.875 212.550781 145.800781 212.707031 141.609375 C 212.886719 136.855469 212.097656 133.074219 211.527344 131.023438 C 212.828125 129.660156 213.140625 127.550781 212.148438 125.835938 C 210.945312 123.75 208.28125 123.035156 206.195312 124.238281 C 204.113281 125.441406 203.398438 128.109375 204.601562 130.191406 C 205.738281 132.164062 208.183594 132.910156 210.207031 131.96875 C 210.730469 134.019531 211.359375 137.453125 211.195312 141.621094 C 211.113281 143.683594 210.824219 146.074219 210.160156 148.664062 C 209.902344 147.941406 209.617188 147.226562 209.300781 146.523438 C 207.769531 143.121094 205.898438 140.738281 204.78125 139.496094 C 205.222656 138.085938 204.703125 136.496094 203.410156 135.636719 C 201.839844 134.59375 199.71875 135.019531 198.675781 136.589844 C 197.628906 138.164062 198.058594 140.28125 199.628906 141.328125 C 201.113281 142.316406 203.089844 141.988281 204.183594 140.621094 C 205.265625 141.882812 206.902344 144.074219 208.238281 147.058594 C 208.71875 148.125 209.179688 149.347656 209.5625 150.71875 C 208.460938 154.097656 206.6875 157.738281 203.90625 161.375 C 201.488281 159.628906 198.09375 159.957031 196.066406 162.226562 C 193.894531 164.65625 194.101562 168.382812 196.53125 170.554688 C 198.957031 172.722656 202.683594 172.515625 204.855469 170.085938 " fill-opacity="1" fill-rule="nonzero"/><path fill="#00adef" d="M 186.339844 179.617188 C 189.226562 180.21875 192.058594 178.597656 193.0625 175.921875 C 196.492188 176.386719 199.863281 176.402344 203.128906 175.964844 C 207.25 175.410156 211.222656 174.136719 214.929688 172.179688 C 219.136719 169.957031 222.015625 167.382812 223.507812 165.863281 C 225.339844 166.308594 227.320312 165.519531 228.3125 163.804688 C 229.511719 161.722656 228.800781 159.054688 226.714844 157.855469 C 224.632812 156.648438 221.964844 157.363281 220.761719 159.449219 C 219.625 161.417969 220.203125 163.910156 222.03125 165.191406 C 220.511719 166.667969 217.855469 168.929688 214.164062 170.871094 C 212.332031 171.832031 210.121094 172.777344 207.546875 173.496094 C 208.042969 172.914062 208.519531 172.308594 208.96875 171.683594 C 211.152344 168.65625 212.277344 165.84375 212.796875 164.257812 C 214.238281 163.929688 215.355469 162.691406 215.453125 161.140625 C 215.570312 159.257812 214.140625 157.632812 212.257812 157.515625 C 210.375 157.394531 208.75 158.824219 208.632812 160.710938 C 208.519531 162.488281 209.792969 164.035156 211.523438 164.300781 C 210.972656 165.867188 209.894531 168.382812 207.976562 171.03125 C 207.289062 171.980469 206.460938 172.992188 205.46875 174.003906 C 201.988281 174.742188 197.953125 175.027344 193.410156 174.4375 C 193.714844 171.472656 191.734375 168.695312 188.75 168.074219 C 185.5625 167.40625 182.441406 169.453125 181.773438 172.640625 C 181.109375 175.828125 183.152344 178.949219 186.339844 179.617188 " fill-opacity="1" fill-rule="nonzero"/><path fill="#01297f" d="M 168.832031 168.34375 C 169.75 171.144531 172.570312 172.792969 175.390625 172.320312 C 176.703125 175.523438 178.375 178.449219 180.386719 181.058594 C 182.929688 184.355469 186.015625 187.15625 189.566406 189.386719 C 193.59375 191.917969 197.261719 193.125 199.324219 193.65625 C 199.855469 195.46875 201.527344 196.789062 203.507812 196.789062 C 205.914062 196.789062 207.867188 194.835938 207.867188 192.429688 C 207.867188 190.023438 205.914062 188.074219 203.507812 188.074219 C 201.230469 188.074219 199.363281 189.816406 199.167969 192.039062 C 197.128906 191.464844 193.839844 190.296875 190.3125 188.070312 C 188.566406 186.964844 186.640625 185.519531 184.734375 183.652344 C 185.484375 183.789062 186.246094 183.898438 187.015625 183.976562 C 190.730469 184.351562 193.726562 183.921875 195.359375 183.578125 C 196.363281 184.664062 197.996094 185.011719 199.386719 184.320312 C 201.078125 183.480469 201.769531 181.429688 200.929688 179.742188 C 200.089844 178.050781 198.042969 177.359375 196.351562 178.199219 C 194.753906 178.992188 194.046875 180.867188 194.6875 182.496094 C 193.050781 182.804688 190.335938 183.125 187.082031 182.789062 C 185.917969 182.671875 184.628906 182.457031 183.253906 182.105469 C 180.875 179.460938 178.609375 176.109375 176.851562 171.878906 C 179.570312 170.660156 180.984375 167.554688 180.03125 164.660156 C 179.015625 161.566406 175.683594 159.886719 172.589844 160.902344 C 169.496094 161.917969 167.8125 165.253906 168.832031 168.34375 " fill-opacity="1" fill-rule="nonzero"/><path fill="#00adef" d="M 169.835938 147.546875 C 167.871094 149.746094 167.855469 153.007812 169.675781 155.21875 C 167.554688 157.953125 165.859375 160.863281 164.605469 163.910156 C 163.023438 167.761719 162.140625 171.835938 161.980469 176.023438 C 161.804688 180.78125 162.59375 184.558594 163.164062 186.613281 C 161.859375 187.976562 161.550781 190.085938 162.542969 191.800781 C 163.746094 193.882812 166.410156 194.597656 168.496094 193.394531 C 170.578125 192.191406 171.292969 189.527344 170.089844 187.441406 C 168.953125 185.472656 166.507812 184.726562 164.484375 185.667969 C 163.960938 183.613281 163.332031 180.179688 163.496094 176.011719 C 163.578125 173.949219 163.867188 171.558594 164.53125 168.972656 C 164.789062 169.691406 165.074219 170.40625 165.390625 171.109375 C 166.921875 174.515625 168.792969 176.894531 169.910156 178.136719 C 169.46875 179.550781 169.988281 181.136719 171.28125 181.996094 C 172.851562 183.042969 174.972656 182.613281 176.015625 181.042969 C 177.0625 179.472656 176.636719 177.351562 175.0625 176.308594 C 173.578125 175.320312 171.601562 175.648438 170.507812 177.011719 C 169.425781 175.75 167.789062 173.5625 166.453125 170.574219 C 165.972656 169.507812 165.515625 168.285156 165.132812 166.917969 C 166.230469 163.535156 168.003906 159.898438 170.785156 156.261719 C 173.203125 158.007812 176.597656 157.675781 178.628906 155.40625 C 180.796875 152.980469 180.589844 149.25 178.160156 147.082031 C 175.734375 144.910156 172.007812 145.121094 169.835938 147.546875 " fill-opacity="1" fill-rule="nonzero"/><path fill="#01297f" d="M 188.351562 138.019531 C 185.464844 137.414062 182.632812 139.035156 181.628906 141.714844 C 178.199219 141.246094 174.828125 141.230469 171.5625 141.671875 C 167.4375 142.222656 163.46875 143.496094 159.761719 145.457031 C 155.554688 147.679688 152.675781 150.25 151.183594 151.769531 C 149.351562 151.324219 147.371094 152.113281 146.378906 153.828125 C 145.175781 155.910156 145.890625 158.578125 147.976562 159.78125 C 150.058594 160.984375 152.726562 160.269531 153.929688 158.1875 C 155.066406 156.214844 154.488281 153.726562 152.664062 152.445312 C 154.179688 150.964844 156.835938 148.703125 160.53125 146.761719 C 162.359375 145.800781 164.574219 144.855469 167.144531 144.136719 C 166.648438 144.71875 166.171875 145.324219 165.722656 145.949219 C 163.539062 148.976562 162.414062 151.789062 161.894531 153.378906 C 160.453125 153.703125 159.335938 154.945312 159.238281 156.492188 C 159.121094 158.375 160.550781 160 162.433594 160.121094 C 164.316406 160.238281 165.9375 158.808594 166.058594 156.925781 C 166.171875 155.144531 164.898438 153.597656 163.167969 153.332031 C 163.71875 151.765625 164.796875 149.253906 166.714844 146.601562 C 167.398438 145.65625 168.230469 144.644531 169.222656 143.628906 C 172.703125 142.890625 176.738281 142.605469 181.28125 143.199219 C 180.976562 146.164062 182.957031 148.9375 185.941406 149.5625 C 189.128906 150.226562 192.25 148.183594 192.917969 144.996094 C 193.582031 141.808594 191.539062 138.683594 188.351562 138.019531 " fill-opacity="1" fill-rule="nonzero"/><path fill="#00adef" d="M 205.859375 149.289062 C 204.941406 146.488281 202.121094 144.84375 199.296875 145.3125 C 197.988281 142.109375 196.316406 139.1875 194.304688 136.574219 C 191.761719 133.28125 188.675781 130.480469 185.125 128.25 C 181.097656 125.714844 177.429688 124.507812 175.367188 123.976562 C 174.835938 122.167969 173.164062 120.847656 171.183594 120.847656 C 168.777344 120.847656 166.824219 122.796875 166.824219 125.203125 C 166.824219 127.609375 168.777344 129.5625 171.183594 129.5625 C 173.460938 129.5625 175.328125 127.816406 175.523438 125.59375 C 177.5625 126.167969 180.851562 127.339844 184.378906 129.566406 C 186.125 130.667969 188.050781 132.113281 189.957031 133.984375 C 189.207031 133.84375 188.445312 133.734375 187.675781 133.65625 C 183.964844 133.28125 180.964844 133.710938 179.332031 134.054688 C 178.328125 132.96875 176.695312 132.625 175.304688 133.3125 C 173.613281 134.152344 172.921875 136.203125 173.761719 137.894531 C 174.601562 139.582031 176.648438 140.273438 178.339844 139.4375 C 179.9375 138.644531 180.644531 136.769531 180.007812 135.136719 C 181.640625 134.832031 184.355469 134.507812 187.609375 134.84375 C 188.773438 134.964844 190.0625 135.175781 191.4375 135.527344 C 193.816406 138.171875 196.082031 141.523438 197.839844 145.753906 C 195.121094 146.976562 193.707031 150.078125 194.660156 152.972656 C 195.675781 156.066406 199.007812 157.75 202.101562 156.730469 C 205.195312 155.714844 206.878906 152.382812 205.859375 149.289062 " fill-opacity="1" fill-rule="nonzero"/><g clip-path="url(#7f3bfec1c5)"><path fill="#01297f" d="M 191.304688 108.402344 C 191.304688 110.585938 189.53125 112.359375 187.347656 112.359375 C 185.160156 112.359375 183.386719 110.585938 183.386719 108.402344 C 183.386719 106.214844 185.160156 104.441406 187.347656 104.441406 C 189.53125 104.441406 191.304688 106.214844 191.304688 108.402344 " fill-opacity="1" fill-rule="nonzero"/></g><g clip-path="url(#0d1f8310f4)"><path fill="#01297f" d="M 191.304688 209.234375 C 191.304688 211.417969 189.53125 213.191406 187.347656 213.191406 C 185.160156 213.191406 183.386719 211.417969 183.386719 209.234375 C 183.386719 207.046875 185.160156 205.273438 187.347656 205.273438 C 189.53125 205.273438 191.304688 207.046875 191.304688 209.234375 " fill-opacity="1" fill-rule="nonzero"/></g><g clip-path="url(#860e2d3fe7)"><path fill="#01297f" d="M 237.761719 162.777344 C 235.574219 162.777344 233.804688 161.003906 233.804688 158.816406 C 233.804688 156.632812 235.574219 154.859375 237.761719 154.859375 C 239.949219 154.859375 241.722656 156.632812 241.722656 158.816406 C 241.722656 161.003906 239.949219 162.777344 237.761719 162.777344 " fill-opacity="1" fill-rule="nonzero"/></g><g clip-path="url(#7951ebdfc3)"><path fill="#01297f" d="M 136.929688 162.777344 C 134.742188 162.777344 132.972656 161.003906 132.972656 158.816406 C 132.972656 156.632812 134.742188 154.859375 136.929688 154.859375 C 139.117188 154.859375 140.886719 156.632812 140.886719 158.816406 C 140.886719 161.003906 139.117188 162.777344 136.929688 162.777344 " fill-opacity="1" fill-rule="nonzero"/></g><path fill="#01297f" d="M 225.792969 125.964844 C 224.25 127.511719 221.742188 127.511719 220.195312 125.964844 C 218.648438 124.421875 218.648438 121.914062 220.195312 120.367188 C 221.742188 118.824219 224.25 118.824219 225.792969 120.367188 C 227.339844 121.914062 227.339844 124.421875 225.792969 125.964844 " fill-opacity="1" fill-rule="nonzero"/><path fill="#01297f" d="M 154.496094 197.265625 C 152.949219 198.8125 150.441406 198.8125 148.898438 197.265625 C 147.351562 195.71875 147.351562 193.214844 148.898438 191.667969 C 150.441406 190.121094 152.949219 190.121094 154.496094 191.667969 C 156.042969 193.214844 156.042969 195.71875 154.496094 197.265625 " fill-opacity="1" fill-rule="nonzero"/><path fill="#01297f" d="M 220.195312 197.265625 C 218.648438 195.71875 218.648438 193.214844 220.195312 191.667969 C 221.742188 190.121094 224.25 190.121094 225.792969 191.667969 C 227.339844 193.214844 227.339844 195.71875 225.792969 197.265625 C 224.25 198.8125 221.742188 198.8125 220.195312 197.265625 " fill-opacity="1" fill-rule="nonzero"/><path fill="#01297f" d="M 148.898438 125.964844 C 147.351562 124.421875 147.351562 121.914062 148.898438 120.367188 C 150.441406 118.824219 152.949219 118.824219 154.496094 120.367188 C 156.042969 121.914062 156.042969 124.421875 154.496094 125.964844 C 152.949219 127.511719 150.441406 127.511719 148.898438 125.964844 " fill-opacity="1" fill-rule="nonzero"/><path fill="#00adef" d="M 210.867188 114.046875 C 210.003906 116.058594 207.675781 116.988281 205.667969 116.125 C 203.65625 115.261719 202.726562 112.933594 203.589844 110.925781 C 204.453125 108.914062 206.78125 107.988281 208.789062 108.847656 C 210.796875 109.710938 211.726562 112.039062 210.867188 114.046875 " fill-opacity="1" fill-rule="nonzero"/><path fill="#00adef" d="M 171.101562 206.710938 C 170.238281 208.71875 167.910156 209.648438 165.902344 208.785156 C 163.894531 207.921875 162.964844 205.597656 163.824219 203.585938 C 164.6875 201.578125 167.015625 200.648438 169.023438 201.507812 C 171.035156 202.371094 171.964844 204.699219 171.101562 206.710938 " fill-opacity="1" fill-rule="nonzero"/><path fill="#00adef" d="M 232.113281 182.335938 C 230.105469 181.476562 229.175781 179.148438 230.039062 177.136719 C 230.902344 175.128906 233.230469 174.199219 235.238281 175.0625 C 237.246094 175.921875 238.175781 178.25 237.3125 180.261719 C 236.453125 182.269531 234.125 183.199219 232.113281 182.335938 " fill-opacity="1" fill-rule="nonzero"/><path fill="#00adef" d="M 139.453125 142.574219 C 137.445312 141.710938 136.515625 139.382812 137.378906 137.375 C 138.238281 135.363281 140.566406 134.433594 142.578125 135.296875 C 144.585938 136.160156 145.515625 138.488281 144.652344 140.496094 C 143.789062 142.503906 141.464844 143.4375 139.453125 142.574219 " fill-opacity="1" fill-rule="nonzero"/><path fill="#00adef" d="M 235.632812 143.792969 C 233.601562 144.601562 231.300781 143.613281 230.488281 141.582031 C 229.679688 139.554688 230.667969 137.25 232.695312 136.4375 C 234.726562 135.628906 237.03125 136.617188 237.839844 138.648438 C 238.652344 140.675781 237.664062 142.980469 235.632812 143.792969 " fill-opacity="1" fill-rule="nonzero"/><path fill="#00adef" d="M 141.996094 181.195312 C 139.964844 182.007812 137.660156 181.019531 136.851562 178.988281 C 136.039062 176.957031 137.027344 174.652344 139.058594 173.84375 C 141.089844 173.03125 143.390625 174.019531 144.203125 176.050781 C 145.015625 178.082031 144.023438 180.382812 141.996094 181.195312 " fill-opacity="1" fill-rule="nonzero"/><path fill="#00adef" d="M 190.347656 120.605469 C 190.347656 122.261719 189.003906 123.605469 187.347656 123.605469 C 185.6875 123.605469 184.34375 122.261719 184.34375 120.605469 C 184.34375 118.945312 185.6875 117.605469 187.347656 117.605469 C 189.003906 117.605469 190.347656 118.945312 190.347656 120.605469 " fill-opacity="1" fill-rule="nonzero"/><path fill="#00adef" d="M 190.347656 197.03125 C 190.347656 198.6875 189.003906 200.03125 187.347656 200.03125 C 185.6875 200.03125 184.34375 198.6875 184.34375 197.03125 C 184.34375 195.371094 185.6875 194.027344 187.347656 194.027344 C 189.003906 194.027344 190.347656 195.371094 190.347656 197.03125 " fill-opacity="1" fill-rule="nonzero"/><path fill="#00adef" d="M 212.246094 187.957031 C 211.074219 186.789062 211.074219 184.886719 212.246094 183.714844 C 213.414062 182.542969 215.316406 182.542969 216.488281 183.714844 C 217.660156 184.886719 217.660156 186.789062 216.488281 187.957031 C 215.316406 189.132812 213.414062 189.132812 212.246094 187.957031 " fill-opacity="1" fill-rule="nonzero"/><path fill="#00adef" d="M 158.203125 133.917969 C 157.03125 132.746094 157.03125 130.847656 158.203125 129.675781 C 159.375 128.503906 161.273438 128.503906 162.445312 129.675781 C 163.617188 130.847656 163.617188 132.746094 162.445312 133.917969 C 161.273438 135.089844 159.375 135.089844 158.203125 133.917969 " fill-opacity="1" fill-rule="nonzero"/><path fill="#00adef" d="M 223.945312 147.429688 C 222.40625 148.042969 220.660156 147.292969 220.046875 145.753906 C 219.429688 144.214844 220.179688 142.46875 221.71875 141.855469 C 223.257812 141.242188 225.003906 141.988281 225.617188 143.527344 C 226.234375 145.066406 225.484375 146.8125 223.945312 147.429688 " fill-opacity="1" fill-rule="nonzero"/><path fill="#00adef" d="M 152.972656 175.777344 C 151.433594 176.394531 149.6875 175.644531 149.074219 174.105469 C 148.457031 172.566406 149.207031 170.820312 150.746094 170.207031 C 152.285156 169.589844 154.03125 170.339844 154.644531 171.878906 C 155.261719 173.417969 154.511719 175.164062 152.972656 175.777344 " fill-opacity="1" fill-rule="nonzero"/><path fill="#00adef" d="M 202.371094 207.105469 C 201.558594 205.074219 202.546875 202.769531 204.578125 201.960938 C 206.609375 201.148438 208.914062 202.136719 209.722656 204.167969 C 210.535156 206.199219 209.546875 208.5 207.515625 209.3125 C 205.484375 210.125 203.183594 209.136719 202.371094 207.105469 " fill-opacity="1" fill-rule="nonzero"/><path fill="#00adef" d="M 164.96875 113.464844 C 164.15625 111.4375 165.144531 109.132812 167.175781 108.320312 C 169.207031 107.511719 171.507812 108.5 172.320312 110.53125 C 173.132812 112.558594 172.144531 114.863281 170.113281 115.675781 C 168.082031 116.484375 165.777344 115.496094 164.96875 113.464844 " fill-opacity="1" fill-rule="nonzero"/><g fill="#01297f" fill-opacity="1"><g transform="translate(90.915969, 249.739613)"><g><path d="M 17.1875 -17.25 L 6.09375 -17.25 L 6.09375 -11.75 L 16.03125 -11.75 L 16.03125 -8.6875 L 6.09375 -8.6875 L 6.09375 -3.078125 L 17.53125 -3.078125 L 17.53125 0 L 2.671875 0 L 2.671875 -20.328125 L 17.1875 -20.328125 Z M 17.1875 -17.25 "/></g></g></g><g fill="#01297f" fill-opacity="1"><g transform="translate(111.430582, 249.739613)"><g><path d="M 9.34375 -20.46875 C 11.976562 -20.46875 14.347656 -19.769531 16.453125 -18.375 L 15.03125 -15.359375 C 12.96875 -16.617188 10.988281 -17.25 9.09375 -17.25 C 8.0625 -17.25 7.25 -17.0625 6.65625 -16.6875 C 6.070312 -16.320312 5.78125 -15.800781 5.78125 -15.125 C 5.78125 -14.445312 6.050781 -13.867188 6.59375 -13.390625 C 7.132812 -12.921875 7.8125 -12.570312 8.625 -12.34375 C 9.4375 -12.125 10.316406 -11.84375 11.265625 -11.5 C 12.210938 -11.164062 13.09375 -10.8125 13.90625 -10.4375 C 14.71875 -10.0625 15.390625 -9.472656 15.921875 -8.671875 C 16.453125 -7.867188 16.71875 -6.894531 16.71875 -5.75 C 16.71875 -3.96875 16.003906 -2.546875 14.578125 -1.484375 C 13.160156 -0.421875 11.320312 0.109375 9.0625 0.109375 C 7.507812 0.109375 6.003906 -0.175781 4.546875 -0.75 C 3.097656 -1.332031 1.832031 -2.117188 0.75 -3.109375 L 2.234375 -6.0625 C 3.265625 -5.113281 4.394531 -4.382812 5.625 -3.875 C 6.851562 -3.363281 8.015625 -3.109375 9.109375 -3.109375 C 10.316406 -3.109375 11.253906 -3.320312 11.921875 -3.75 C 12.585938 -4.1875 12.921875 -4.796875 12.921875 -5.578125 C 12.921875 -6.273438 12.648438 -6.859375 12.109375 -7.328125 C 11.566406 -7.804688 10.890625 -8.15625 10.078125 -8.375 C 9.265625 -8.59375 8.382812 -8.863281 7.4375 -9.1875 C 6.488281 -9.507812 5.609375 -9.847656 4.796875 -10.203125 C 3.984375 -10.554688 3.300781 -11.128906 2.75 -11.921875 C 2.207031 -12.722656 1.9375 -13.6875 1.9375 -14.8125 C 1.9375 -16.53125 2.613281 -17.898438 3.96875 -18.921875 C 5.332031 -19.953125 7.125 -20.46875 9.34375 -20.46875 Z M 9.34375 -20.46875 "/></g></g></g><g fill="#01297f" fill-opacity="1"><g transform="translate(130.958658, 249.739613)"><g><path d="M 2.671875 -20.328125 L 10.765625 -20.328125 C 13.328125 -20.328125 15.304688 -19.71875 16.703125 -18.5 C 18.109375 -17.289062 18.8125 -15.585938 18.8125 -13.390625 C 18.8125 -11.078125 18.109375 -9.285156 16.703125 -8.015625 C 15.304688 -6.753906 13.328125 -6.125 10.765625 -6.125 L 6.09375 -6.125 L 6.09375 0 L 2.671875 0 Z M 6.09375 -17.25 L 6.09375 -9.203125 L 10.625 -9.203125 C 13.894531 -9.203125 15.53125 -10.566406 15.53125 -13.296875 C 15.53125 -15.929688 13.894531 -17.25 10.625 -17.25 Z M 6.09375 -17.25 "/></g></g></g><g fill="#01297f" fill-opacity="1"><g transform="translate(151.966533, 249.739613)"><g><path d="M 17.1875 -17.25 L 6.09375 -17.25 L 6.09375 -11.75 L 16.03125 -11.75 L 16.03125 -8.6875 L 6.09375 -8.6875 L 6.09375 -3.078125 L 17.53125 -3.078125 L 17.53125 0 L 2.671875 0 L 2.671875 -20.328125 L 17.1875 -20.328125 Z M 17.1875 -17.25 "/></g></g></g><g fill="#01297f" fill-opacity="1"><g transform="translate(172.481147, 249.739613)"><g><path d="M 15.5625 0 L 11.84375 -6.15625 C 11.644531 -6.132812 11.335938 -6.125 10.921875 -6.125 L 6.09375 -6.125 L 6.09375 0 L 2.671875 0 L 2.671875 -20.328125 L 10.921875 -20.328125 C 13.515625 -20.328125 15.523438 -19.71875 16.953125 -18.5 C 18.390625 -17.289062 19.109375 -15.585938 19.109375 -13.390625 C 19.109375 -11.753906 18.742188 -10.375 18.015625 -9.25 C 17.285156 -8.132812 16.242188 -7.316406 14.890625 -6.796875 L 19.453125 0 Z M 6.09375 -9.203125 L 10.921875 -9.203125 C 14.203125 -9.203125 15.84375 -10.566406 15.84375 -13.296875 C 15.84375 -15.929688 14.203125 -17.25 10.921875 -17.25 L 6.09375 -17.25 Z M 6.09375 -9.203125 "/></g></g></g><g fill="#01297f" fill-opacity="1"><g transform="translate(194.939804, 249.739613)"><g><path d="M 15.796875 -4.59375 L 5.546875 -4.59375 L 3.59375 0 L 0.03125 0 L 9 -20.328125 L 12.515625 -20.328125 L 21.390625 0 L 17.734375 0 Z M 14.484375 -7.640625 L 10.65625 -16.65625 L 6.828125 -7.640625 Z M 14.484375 -7.640625 "/></g></g></g><g fill="#01297f" fill-opacity="1"><g transform="translate(217.833685, 249.739613)"><g><path d="M 20.296875 0 L 16.921875 0 L 6.09375 -14.578125 L 6.09375 0 L 2.671875 0 L 2.671875 -20.328125 L 6.03125 -20.328125 L 16.921875 -5.71875 L 16.921875 -20.328125 L 20.296875 -20.328125 Z M 20.296875 0 "/></g></g></g><g fill="#01297f" fill-opacity="1"><g transform="translate(242.294423, 249.739613)"><g><path d="M 16.546875 -17.25 L 10.109375 -17.25 L 10.109375 0 L 6.671875 0 L 6.671875 -17.25 L 0.265625 -17.25 L 0.265625 -20.328125 L 16.546875 -20.328125 Z M 16.546875 -17.25 "/></g></g></g><g fill="#01297f" fill-opacity="1"><g transform="translate(260.574825, 249.739613)"><g><path d="M 4.09375 -17.453125 C 6.164062 -19.421875 8.71875 -20.40625 11.75 -20.40625 C 14.789062 -20.40625 17.347656 -19.421875 19.421875 -17.453125 C 21.492188 -15.492188 22.53125 -13.0625 22.53125 -10.15625 C 22.53125 -7.257812 21.492188 -4.816406 19.421875 -2.828125 C 17.347656 -0.847656 14.789062 0.140625 11.75 0.140625 C 8.71875 0.140625 6.164062 -0.847656 4.09375 -2.828125 C 2.019531 -4.816406 0.984375 -7.257812 0.984375 -10.15625 C 0.984375 -13.0625 2.019531 -15.492188 4.09375 -17.453125 Z M 11.78125 -17.328125 C 9.769531 -17.328125 8.046875 -16.632812 6.609375 -15.25 C 5.179688 -13.875 4.46875 -12.175781 4.46875 -10.15625 C 4.46875 -8.144531 5.1875 -6.4375 6.625 -5.03125 C 8.070312 -3.632812 9.789062 -2.9375 11.78125 -2.9375 C 13.78125 -2.9375 15.484375 -3.632812 16.890625 -5.03125 C 18.304688 -6.4375 19.015625 -8.144531 19.015625 -10.15625 C 19.015625 -12.175781 18.304688 -13.875 16.890625 -15.25 C 15.484375 -16.632812 13.78125 -17.328125 11.78125 -17.328125 Z M 11.78125 -17.328125 "/></g></g></g></svg>